<?xml version="1.0" encoding="UTF-8"?>
<svg xmlns="http://www.w3.org/2000/svg" xmlns:xlink="http://www.w3.org/1999/xlink" width="145px" height="150px" viewBox="0 0 68 70" version="1.1">
<g id="surface1">
<path style="fill-rule:evenodd;fill:rgb(78.823529%,9.019608%,49.411765%);fill-opacity:1;stroke-width:4;stroke-linecap:round;stroke-linejoin:round;stroke:rgb(78.823529%,9.019608%,49.411765%);stroke-opacity:1;stroke-miterlimit:1.5;" d="M 167.380567 132.773889 C 165.394017 163.475883 157.390651 172.184137 150.144747 191.558204 C 140.354915 210.572425 133.10901 214.357997 127.620988 223.008676 C 131.508337 226.808641 144.78535 238.813078 159.005616 243.908486 C 199.922825 251.853869 250.25828 251.494023 284.101085 243.908486 C 312.298658 238.453233 330.563483 241.979716 350.857732 258.143963 C 352.029654 218.517808 351.600902 171.277327 333.750537 132.773889 " transform="matrix(0.273323,0,0,0.271384,-33.79575,-2.903809)"/>
<path style=" stroke:none;fill-rule:nonzero;fill:rgb(54.901961%,77.254902%,90.588235%);fill-opacity:1;" d="M 61.675781 9.199219 C 59.84375 5.480469 55.417969 8.765625 54.296875 7.597656 C 48.554688 1.738281 41.613281 0.269531 36.175781 0 L 33.167969 0 C 27.703125 0.136719 20.757812 1.710938 15.046875 7.597656 C 13.925781 8.765625 9.472656 5.480469 7.667969 9.199219 C 5.5625 13.542969 11.957031 13.976562 11.628906 15.902344 C 11 19.375 11.410156 24.53125 11.902344 29.609375 C 12.667969 38.210938 6.191406 58.808594 19.667969 67.085938 C 22.207031 68.660156 29.070312 69.527344 35.027344 69.664062 L 35.082031 69.664062 C 41.039062 69.527344 47.082031 68.660156 49.621094 67.085938 C 63.125 58.808594 56.648438 38.210938 57.4375 29.609375 C 57.902344 24.53125 58.3125 19.375 57.710938 15.902344 C 57.386719 13.976562 63.78125 13.515625 61.675781 9.199219 Z M 61.675781 9.199219 "/>
<path style=" stroke:none;fill-rule:nonzero;fill:rgb(87.843137%,87.058824%,86.27451%);fill-opacity:1;" d="M 44.15625 11.832031 C 35.027344 12.890625 36.257812 22.335938 39.78125 25.402344 C 46.34375 31.101562 53.175781 25.402344 52.410156 19.648438 C 51.726562 14.113281 47 11.507812 44.15625 11.832031 Z M 44.15625 11.832031 "/>
<path style=" stroke:none;fill-rule:evenodd;fill:rgb(6.666667%,7.058824%,7.058824%);fill-opacity:1;" d="M 44.785156 16.878906 C 46.503906 16.878906 47.902344 18.265625 47.902344 19.972656 C 47.902344 21.679688 46.503906 23.066406 44.785156 23.066406 C 43.066406 23.066406 41.667969 21.679688 41.667969 19.972656 C 41.667969 18.265625 43.066406 16.878906 44.785156 16.878906 Z M 24.519531 16.839844 C 26.238281 16.839844 27.636719 18.222656 27.636719 19.933594 C 27.636719 21.640625 26.238281 23.027344 24.519531 23.027344 C 22.800781 23.027344 21.402344 21.640625 21.402344 19.933594 C 21.402344 18.222656 22.800781 16.839844 24.519531 16.839844 Z M 24.519531 16.839844 "/>
<path style=" stroke:none;fill-rule:evenodd;fill:rgb(100%,100%,100%);fill-opacity:1;" d="M 43.964844 17.667969 C 44.507812 17.667969 44.949219 18.105469 44.949219 18.644531 C 44.949219 19.183594 44.507812 19.621094 43.964844 19.621094 C 43.421875 19.621094 42.980469 19.183594 42.980469 18.644531 C 42.980469 18.105469 43.421875 17.667969 43.964844 17.667969 Z M 25.316406 17.503906 C 25.859375 17.503906 26.300781 17.941406 26.300781 18.480469 C 26.300781 19.019531 25.859375 19.457031 25.316406 19.457031 C 24.773438 19.457031 24.332031 19.019531 24.332031 18.480469 C 24.332031 17.941406 24.773438 17.503906 25.316406 17.503906 Z M 25.316406 17.503906 "/>
<path style=" stroke:none;fill-rule:nonzero;fill:rgb(72.156863%,57.647059%,49.803922%);fill-opacity:1;" d="M 34.671875 26.132812 C 30.296875 26.785156 28.742188 28.035156 29.070312 29.988281 C 29.613281 33.191406 39.917969 32.835938 40.246094 30.152344 C 40.519531 27.84375 36.394531 25.890625 34.671875 26.132812 Z M 34.671875 26.132812 "/>
<path style=" stroke:none;fill-rule:nonzero;fill:rgb(0%,0%,0%);fill-opacity:1;" d="M 31.855469 27.4375 C 31.117188 30.097656 37.789062 29.6875 37.625 27.980469 C 37.542969 26.976562 36.640625 25.699219 34.261719 25.753906 C 33.332031 25.78125 32.183594 26.1875 31.855469 27.4375 Z M 31.855469 27.4375 "/>
<path style=" stroke:none;fill-rule:nonzero;fill:rgb(87.843137%,87.058824%,86.27451%);fill-opacity:1;" d="M 32.074219 31.75 C 31.828125 31.859375 31.417969 34.519531 32.675781 34.65625 C 33.523438 34.738281 35.847656 35.007812 36.394531 34.65625 C 37.460938 33.976562 37.351562 32.347656 36.75 31.941406 C 35.738281 31.289062 32.347656 31.617188 32.074219 31.75 Z M 25.132812 11.832031 C 34.261719 12.890625 33.03125 22.335938 29.507812 25.402344 C 22.945312 31.101562 16.113281 25.402344 16.878906 19.648438 C 17.589844 14.113281 22.316406 11.507812 25.132812 11.832031 Z M 25.132812 11.832031 "/>
<path style=" stroke:none;fill-rule:evenodd;fill:rgb(6.666667%,7.058824%,7.058824%);fill-opacity:1;" d="M 27.648438 19.972656 C 27.648438 21.683594 26.253906 23.066406 24.53125 23.066406 C 22.8125 23.066406 21.414062 21.683594 21.414062 19.972656 C 21.414062 18.265625 22.8125 16.878906 24.53125 16.878906 C 26.253906 16.878906 27.648438 18.265625 27.648438 19.972656 Z M 27.648438 19.972656 "/>
<path style=" stroke:none;fill-rule:evenodd;fill:rgb(100%,100%,100%);fill-opacity:1;" d="M 26.335938 18.644531 C 26.335938 19.183594 25.894531 19.621094 25.351562 19.621094 C 24.808594 19.621094 24.367188 19.183594 24.367188 18.644531 C 24.367188 18.105469 24.808594 17.667969 25.351562 17.667969 C 25.894531 17.667969 26.335938 18.105469 26.335938 18.644531 Z M 26.335938 18.644531 "/>
<path style=" stroke:none;fill-rule:nonzero;fill:rgb(72.156863%,57.647059%,49.803922%);fill-opacity:1;" d="M 57.929688 47.761719 C 60.9375 47.789062 59.460938 41.386719 57.601562 42.660156 C 56.703125 43.285156 56.539062 44.722656 56.539062 45.945312 C 56.539062 46.625 57.085938 47.738281 57.929688 47.761719 Z M 11.382812 47.761719 C 8.378906 47.789062 9.855469 41.386719 11.710938 42.660156 C 12.613281 43.285156 12.777344 44.722656 12.777344 45.945312 C 12.777344 46.625 12.230469 47.738281 11.382812 47.761719 Z M 52.21875 67.4375 C 50.578125 65.023438 49.101562 66.894531 46.726562 68.089844 C 45.605469 68.660156 48.582031 70.695312 51.917969 69.175781 C 52.792969 68.769531 52.765625 68.226562 52.21875 67.4375 Z M 17.097656 67.710938 C 18.738281 65.296875 20.214844 67.167969 22.589844 68.363281 C 23.710938 68.929688 20.730469 70.96875 17.398438 69.445312 C 16.523438 69.039062 16.550781 68.496094 17.097656 67.710938 Z M 17.097656 67.710938 "/>
<path style=" stroke:none;fill-rule:nonzero;fill:rgb(0%,51.372549%,75.294118%);fill-opacity:1;" d="M 56.566406 9.851562 C 56.402344 10.421875 57.140625 10.339844 57.410156 12.105469 C 57.519531 12.753906 59.871094 11.152344 58.914062 9.988281 C 58.121094 9.011719 56.703125 9.28125 56.566406 9.851562 Z M 12.75 9.851562 C 12.914062 10.421875 12.175781 10.339844 11.902344 12.105469 C 11.792969 12.753906 9.445312 11.152344 10.402344 9.988281 C 11.164062 9.011719 12.585938 9.28125 12.75 9.851562 Z M 12.75 9.851562 "/>
<path style=" stroke:none;fill-rule:evenodd;fill:rgb(100%,25.098039%,53.333333%);fill-opacity:1;" d="M 34.566406 40.203125 L 44.222656 45.773438 L 44.222656 56.746094 L 34.566406 62.1875 L 24.925781 56.746094 L 24.925781 45.773438 Z M 34.566406 40.203125 "/>
<path style=" stroke:none;fill-rule:evenodd;fill:rgb(78.823529%,9.019608%,49.411765%);fill-opacity:1;" d="M 44.664062 45.339844 L 44.824219 45.617188 L 44.824219 56.90625 L 44.660156 57.183594 L 34.722656 62.785156 L 34.40625 62.785156 L 24.488281 57.183594 L 24.324219 56.90625 L 24.324219 45.617188 L 24.484375 45.339844 L 34.402344 39.609375 L 34.726562 39.609375 Z M 25.527344 46.117188 L 25.527344 56.398438 L 34.566406 61.5 L 43.621094 56.398438 L 43.621094 46.117188 L 34.566406 40.894531 Z M 25.527344 46.117188 "/>
<path style=" stroke:none;fill-rule:nonzero;fill:rgb(100%,100%,100%);fill-opacity:1;" d="M 39.253906 57.613281 L 36.621094 57.613281 L 36.621094 52.25 L 32.039062 52.25 L 32.039062 57.613281 L 29.40625 57.613281 L 29.40625 44.921875 L 32.039062 44.921875 L 32.039062 50.226562 L 36.621094 50.226562 L 36.621094 44.921875 L 39.253906 44.921875 Z M 39.253906 57.613281 "/>
<path style="fill:none;stroke-width:4;stroke-linecap:round;stroke-linejoin:round;stroke:rgb(78.823529%,9.019608%,49.411765%);stroke-opacity:1;stroke-miterlimit:1.5;" d="M 167.504047 129.510071 C 184.797035 131.136571 216.710457 134.605479 250.12451 148.409142 C 283.581438 136.174404 294.914776 129.58204 333.874018 129.510071 " transform="matrix(0.273323,0,0,0.271384,-33.8295,-2.01806)"/>
<path style=" stroke:none;fill-rule:evenodd;fill:rgb(78.823529%,9.019608%,49.411765%);fill-opacity:1;" d="M 25.003906 11.804688 C 31.671875 11.804688 35.578125 15.691406 36.582031 19.746094 C 37.636719 24.003906 29.769531 27.6875 23.105469 27.6875 C 16.441406 27.6875 12.828125 20.042969 12.828125 15.660156 C 12.828125 11.277344 18.339844 11.804688 25.003906 11.804688 Z M 25.003906 15.660156 C 29.015625 15.660156 31.867188 17.109375 31.867188 19.746094 C 31.867188 22.386719 29.015625 24.527344 25.003906 24.527344 C 20.992188 24.527344 17.320312 21.289062 17.320312 18.652344 C 17.320312 16.011719 20.992188 15.660156 25.003906 15.660156 Z M 25.003906 15.660156 "/>
<path style=" stroke:none;fill-rule:evenodd;fill:rgb(78.823529%,9.019608%,49.411765%);fill-opacity:1;" d="M 45.273438 11.804688 C 51.699219 11.804688 55.722656 11.316406 55.722656 15.699219 C 55.722656 20.082031 51.699219 27.6875 45.273438 27.6875 C 38.847656 27.6875 33.632812 24.128906 33.632812 19.746094 C 33.632812 15.363281 38.847656 11.804688 45.273438 11.804688 Z M 44.523438 15.699219 C 48.363281 15.699219 51.71875 15.902344 51.71875 18.519531 C 51.71875 21.140625 48.363281 24.492188 44.523438 24.492188 C 40.683594 24.492188 37.566406 22.367188 37.566406 19.746094 C 37.566406 17.128906 40.683594 15.699219 44.523438 15.699219 Z M 44.523438 15.699219 "/>
</g>
</svg>
